{
  "accessors": [
    {
      "bufferView": 2,
      "componentType": 5126,
      "count": 11736,
      "max": [
        13.113582611083984,
        -1.2950067520141602,
        8.374977111816406
      ],
      "min": [
        -11.248897552490234,
        -28.121540069580078,
        -12.291248321533203
      ],
      "type": "VEC3"
    },
    {
      "bufferView": 2,
      "byteOffset": 140832,
      "componentType": 5126,
      "count": 11736,
      "max": [
        0.9994945526123047,
        0.9997555017471313,
        0.9998773336410522
      ],
      "min": [
        -0.9999046921730042,
        -0.999529242515564,
        -0.9996276497840881
      ],
      "type": "VEC3"
    },
    {
      "bufferView": 3,
      "componentType": 5126,
      "count": 11736,
      "max": [
        0.9999999403953552,
        0.999998927116394,
        0.9335535764694214,
        -1.0
      ],
      "min": [
        -1.0,
        -0.9999986290931702,
        -0.9536605477333069,
        -1.0
      ],
      "type": "VEC4"
    },
    {
      "bufferView": 1,
      "componentType": 5126,
      "count": 11736,
      "max": [
        0.9996330142021179,
        0.9603270292282104
      ],
      "min": [
        0.00012199999764561653,
        0.0003659999929368496
      ],
      "type": "VEC2"
    },
    {
      "bufferView": 0,
      "componentType": 5125,
      "count": 29997,
      "type": "SCALAR"
    }
  ],
  "asset": {
    "extras": {
      "author": "Renafox (https://sketchfab.com/kryik1023)",
      "license": "CC-BY-4.0 (http://creativecommons.org/licenses/by/4.0/)",
      "source": "https://sketchfab.com/3d-models/project-reimu-fumo-3d-scan-c4723331d1a2400d942c00004d59e1cc",
      "title": "東方 Project - Reimu Fumo (3D scan)"
    },
    "generator": "Sketchfab-12.68.0",
    "version": "2.0"
  },
  "bufferViews": [
    {
      "buffer": 0,
      "byteLength": 119988,
      "name": "floatBufferViews",
      "target": 34963
    },
    {
      "buffer": 0,
      "byteLength": 93888,
      "byteOffset": 119988,
      "byteStride": 8,
      "name": "floatBufferViews",
      "target": 34962
    },
    {
      "buffer": 0,
      "byteLength": 281664,
      "byteOffset": 213876,
      "byteStride": 12,
      "name": "floatBufferViews",
      "target": 34962
    },
    {
      "buffer": 0,
      "byteLength": 187776,
      "byteOffset": 495540,
      "byteStride": 16,
      "name": "floatBufferViews",
      "target": 34962
    }
  ],
  "buffers": [
    {
      "byteLength": 683316,
      "uri": "scene.bin"
    }
  ],
  "images": [
    {
      "uri": "textures/reimu_low_Material_u1_v1_baseColor.png"
    },
    {
      "uri": "textures/reimu_low_Material_u1_v1_metallicRoughness.png"
    },
    {
      "uri": "textures/reimu_low_Material_u1_v1_normal.png"
    }
  ],
  "materials": [
    {
      "doubleSided": true,
      "emissiveFactor": [
        1.0,
        1.0,
        1.0
      ],
      "emissiveTexture": {
        "index": 0
      },
      "name": "reimu_low_Material_u1_v1",
      "normalTexture": {
        "index": 2
      },
      "occlusionTexture": {
        "index": 1
      },
      "pbrMetallicRoughness": {
        "baseColorTexture": {
          "index": 0
        },
        "metallicFactor": 0.0,
        "metallicRoughnessTexture": {
          "index": 1
        }
      }
    }
  ],
  "meshes": [
    {
      "name": "Object_0",
      "primitives": [
        {
          "attributes": {
            "NORMAL": 1,
            "POSITION": 0,
            "TANGENT": 2,
            "TEXCOORD_0": 3
          },
          "indices": 4,
          "material": 0,
          "mode": 4
        }
      ]
    }
  ],
  "nodes": [
    {
      "children": [
        1
      ],
      "matrix": [
        0.9992949962615967,
        0.03754229098558426,
        -0.00033833063207565903,
        0.0,
        0.037543561309576035,
        -0.9992808103561401,
        0.005327085033058898,
        0.0,
        -0.00013809632218908519,
        -0.005336031317710654,
        -0.9999857544898987,
        0.0,
        0.5525862574577332,
        -16.70119667053223,
        12.828831672668453,
        1.0
      ],
      "name": "Sketchfab_model"
    },
    {
      "children": [
        2
      ],
      "name": "reimu_low.obj.cleaner.materialmerger.gles"
    },
    {
      "mesh": 0,
      "name": "Object_2"
    }
  ],
  "samplers": [
    {
      "magFilter": 9729,
      "minFilter": 9987,
      "wrapS": 10497,
      "wrapT": 10497
    }
  ],
  "scene": 0,
  "scenes": [
    {
      "name": "Sketchfab_Scene",
      "nodes": [
        0
      ]
    }
  ],
  "textures": [
    {
      "sampler": 0,
      "source": 0
    },
    {
      "sampler": 0,
      "source": 1
    },
    {
      "sampler": 0,
      "source": 2
    }
  ]
}
